<svg width="203" height="203" viewBox="0 0 203 203" fill="none" xmlns="http://www.w3.org/2000/svg">
<path d="M64.0231 160.897C65.5552 155.299 66.7337 150.526 68.1774 145.841C70.5933 137.886 73.3334 130.138 78.9608 123.685C84.6765 117.145 91.8065 114.67 99.9677 117.056C104.976 118.529 109.573 121.358 114.257 123.744C116.084 124.687 117.675 126.16 120.179 127.957C119.236 123.479 118.441 119.973 117.793 116.437C116.172 107.805 114.198 99.2311 113.167 90.5396C111.694 78.6367 117.704 71.5067 129.725 70.446C134.439 70.0335 139.301 70.7701 144.103 71.0353C145.547 71.1236 146.961 71.4183 148.67 71.654C144.25 64.5829 139.949 57.9243 135.942 51.1479C126.602 35.3264 137.12 25.692 149.789 24.0421C153.178 23.6002 156.743 23.9832 160.19 24.3073C162.488 24.6019 164.373 26.0751 164.02 28.6089C163.725 30.907 161.663 31.5551 159.483 31.6141C157.332 31.7024 155.152 31.6435 153.06 31.9676C150.614 32.3506 148.139 32.7631 145.812 33.6175C139.271 36.0335 137.327 40.0993 140.096 46.5222C142.041 51.0595 144.663 55.3316 147.197 59.5742C149.554 63.5223 152.117 67.3819 154.68 71.2415C155.976 73.245 157.214 75.3074 155.976 77.6644C154.562 80.375 151.881 80.1687 149.406 79.9919C146.254 79.7857 143.16 79.1081 140.008 79.0786C136.03 78.9902 132.023 78.9902 128.134 79.5205C122.86 80.2571 120.798 82.5552 120.827 87.888C120.857 92.985 121.181 98.1999 122.035 103.238C123.921 114.021 126.16 124.687 128.429 135.382C128.959 137.916 128.93 140.067 126.72 141.569C124.628 143.013 122.625 142.129 120.768 140.744C117.469 138.269 114.228 135.618 110.81 133.32C107.805 131.316 104.682 129.313 101.382 127.898C92.5726 124.098 86.68 125.983 81.1705 133.791C77.0162 139.654 74.1289 146.136 72.0665 152.971C70.5639 157.892 69.3853 162.9 68.089 167.85C67.4113 170.472 66.7042 173.183 63.4339 173.566C60.3403 173.89 58.6904 171.651 57.1877 169.382C56.569 168.41 56.0976 167.349 55.5968 166.318C54.6245 164.226 53.5049 162.164 52.7389 159.983C46.9347 143.808 34.2657 138.387 18.4442 138.181C15.5274 138.151 12.5811 139.035 9.66429 139.595C8.22061 139.86 6.8064 140.567 5.36272 140.656C4.33153 140.744 2.77 140.42 2.35752 139.713C1.88611 138.947 2.23967 137.415 2.56376 136.502C3.30032 134.528 5.30381 132.878 7.1305 132.112C10.7544 130.609 14.614 129.283 18.4737 128.9C27.0179 128.016 35.2969 129.755 43.2813 132.966C50.0872 135.706 54.6834 140.833 57.9243 147.197C59.9867 151.38 61.6956 155.682 64.0231 160.897Z" fill="black"/>
</svg>
