<svg width="55" height="51" viewBox="0 0 55 51" fill="none" xmlns="http://www.w3.org/2000/svg">
<path d="M30.9415 1.98866C32.0225 0.0540047 34.9801 1.05239 34.6674 3.2464L34.0914 7.28846C33.9038 8.6048 35.029 9.73433 36.3461 9.55168L52.0606 7.37241C54.1808 7.07839 55.2187 9.87078 53.4213 11.033L41.744 18.5833C40.3894 19.4591 40.5757 21.4958 42.0668 22.1114L50.0162 25.3933C51.8435 26.1478 51.5851 28.8134 49.6469 29.2028L44.4442 30.2481C43.2688 30.4842 42.5639 31.6942 42.938 32.8331L44.4143 37.3268C44.9784 39.044 43.1561 40.5692 41.5651 39.7115L35.2211 36.2912C33.5933 35.4136 31.7486 37.0258 32.4003 38.7565L35.8896 48.0222C36.6466 50.0323 34.1345 51.6596 32.6095 50.1471L22.7461 40.364C22.1102 39.7332 21.1324 39.6022 20.3529 40.0433L9.23375 46.3339C7.38092 47.3821 5.39062 45.1946 6.60868 43.4488L13.1572 34.0625C13.7564 33.2038 13.5917 32.0282 12.7796 31.3671L1.36225 22.0729C-0.0973303 20.8848 0.74283 18.5219 2.62488 18.5219H11.4209C12.4152 18.5219 13.2585 17.7914 13.4004 16.8073L14.7794 7.24478C15.0776 5.17644 17.9486 4.89363 18.6447 6.86402L20.879 13.1883C21.4522 14.8109 23.6712 15 24.5107 13.4976L30.9415 1.98866Z" fill="#CD4631"/>
</svg>
