<svg width="64" height="62" viewBox="0 0 64 62" fill="none" xmlns="http://www.w3.org/2000/svg">
<path d="M33.7292 30.1452C33.4792 29.1452 33.3333 28.3327 33.0625 27.541C30.3542 19.541 26 12.416 21.0416 5.6452C20.4583 4.85353 19.7291 4.10353 18.9166 3.60353C18.4791 3.3327 17.6041 3.37437 17.1041 3.6452C16.7291 3.85353 16.4583 4.66603 16.5416 5.12437C16.6875 5.99937 17 6.8952 17.4375 7.68687C20.3125 12.916 23.2083 18.1244 26.1458 23.3119C27.25 25.2494 28.4167 27.166 29.5625 29.0827C29.9375 29.7285 30.3542 30.3535 30.7917 30.9369C31.2708 31.6035 32 31.9994 32.7292 31.5619C33.2083 31.2702 33.7292 31.0619 33.7292 30.1452Z" fill="#CD4631"/>
<path d="M4.22915 61.1667C5.22915 61 6.39582 60.875 7.52082 60.625C11.9583 59.625 16.3958 58.625 20.8125 57.5833C21.7708 57.3542 22.7083 56.9583 23.5625 56.5C24.7083 55.8958 25.1041 55.0417 24.9166 54.1042C24.7291 53.1667 23.9792 52.5833 22.6667 52.5625C21.7708 52.5417 20.8125 52.5625 19.9583 52.7708C14.3541 54.1875 8.74999 55.6458 3.16665 57.125C2.54165 57.2917 1.89582 57.5833 1.41665 58C0.208319 59.0208 0.583319 60.625 2.12499 61.0208C2.72915 61.1667 3.41665 61.1042 4.22915 61.1667Z" fill="#CD4631"/>
<path d="M62.7708 5.31213C62.6874 4.33297 62.4791 3.3538 62.2291 2.39547C61.9999 1.5413 61.4166 0.937135 60.4791 0.853802C59.6874 0.791302 58.8333 1.58297 58.7083 2.62464C58.5416 4.02047 58.3958 5.43714 58.4583 6.83297C58.6458 11.0413 58.9166 15.2705 59.2083 19.4788C59.3124 20.8746 59.4999 22.2705 59.7291 23.6663C59.8124 24.1455 59.9791 24.6455 60.2499 25.0205C60.9791 26.083 62.3124 25.9996 62.8333 24.8538C63.1249 24.208 63.2499 23.4163 63.2499 22.708C63.3541 20.3746 63.0416 8.77047 62.7708 5.31213Z" fill="#CD4631"/>
</svg>
